<svg xmlns="http://www.w3.org/2000/svg" xmlns:xlink="http://www.w3.org/1999/xlink" width="363" height="71" viewBox="0 0 363 71">
  <defs>
    <filter id="Path_1" x="306.665" y="14" width="56.335" height="48.25" filterUnits="userSpaceOnUse">
      <feOffset dy="3" input="SourceAlpha"/>
      <feGaussianBlur stdDeviation="3" result="blur"/>
      <feFlood flood-opacity="0.161"/>
      <feComposite operator="in" in2="blur"/>
      <feComposite in="SourceGraphic"/>
    </filter>
  </defs>
  <g id="Group_1" data-name="Group 1" transform="translate(-130 -61)">
    <text id="Basheer_Projects_" data-name="Basheer Projects " transform="translate(130 105)" fill="#505050" font-size="44" font-family="VinerHandITC, Viner Hand ITC" letter-spacing="-0.03em"><tspan x="0" y="0">Basheer Projects </tspan></text>
    <g transform="matrix(1, 0, 0, 1, 130, 61)" filter="url(#Path_1)">
      <g id="Path_1-2" data-name="Path 1" transform="translate(315.66 20)" fill="#505050">
        <path d="M 1.877225875854492 29.75021743774414 C 1.876918911933899 29.75021743774414 1.877010703086853 29.75021743774414 1.876703858375549 29.75021743774414 C 1.207713842391968 29.75016784667969 0.9925438761711121 29.63793754577637 0.9425338506698608 29.60354804992676 C 0.6971038579940796 29.43545722961426 0.562113881111145 29.2231273651123 0.5169038772583008 28.93477821350098 C 0.2545338571071625 27.26142692565918 2.939343929290771 23.7967472076416 5.308094024658203 20.73991775512695 C 7.763353824615479 17.57145690917969 10.082444190979 14.57871723175049 10.082444190979 12.66279792785645 C 10.082444190979 9.426117897033691 11.51764392852783 6.379457473754883 14.12366390228271 4.084057331085205 C 16.74763298034668 1.772837519645691 20.2404842376709 0.4999974966049194 23.95879364013672 0.4999974966049194 C 27.67710304260254 0.4999974966049194 31.16995429992676 1.772837519645691 33.79392242431641 4.084057331085205 C 36.39994430541992 6.379457473754883 37.83514404296875 9.426117897033691 37.83514404296875 12.66279792785645 C 37.83514404296875 15.8994779586792 36.39994430541992 18.94613838195801 33.79392242431641 21.24153709411621 C 31.16995429992676 23.55275726318359 27.67710304260254 24.82559776306152 23.95879364013672 24.82559776306152 C 22.57416343688965 24.82559776306152 19.03305435180664 25.78466796875 14.93279361724854 26.89517784118652 C 9.991916656494141 28.23335456848145 4.391482353210449 29.75021743774414 1.877225875854492 29.75021743774414 Z" stroke="none"/>
        <path d="M 23.95879364013672 0.9999980926513672 C 16.58305358886719 0.9999980926513672 10.58244323730469 6.231906890869141 10.58244323730469 12.66279792785645 C 10.58244323730469 14.74977684020996 8.321393966674805 17.66761779785156 5.703313827514648 21.04618835449219 C 4.449172973632813 22.66462707519531 3.15234375 24.33815765380859 2.240303039550781 25.79071807861328 C 1.049583435058594 27.68714714050293 0.95892333984375 28.52605819702148 1.0108642578125 28.85732650756836 C 1.033817291259766 29.00370025634766 1.087898254394531 29.09271621704102 1.209644317626953 29.18020057678223 C 1.24755859375 29.19475173950195 1.422000885009766 29.25021743774414 1.876663208007813 29.25021743774414 C 4.323802947998047 29.25021743774414 9.890064239501953 27.74272727966309 14.80108451843262 26.4127082824707 C 19.5791130065918 25.11868667602539 22.5776538848877 24.32559776306152 23.95879364013672 24.32559776306152 C 31.33453369140625 24.32559776306152 37.33514404296875 19.09368705749512 37.33514404296875 12.66279792785645 C 37.33514404296875 6.231906890869141 31.33453369140625 0.9999980926513672 23.95879364013672 0.9999980926513672 M 23.95879364013672 -1.9073486328125e-06 C 31.89863395690918 -1.9073486328125e-06 38.33514404296875 5.669326782226563 38.33514404296875 12.66279792785645 C 38.33514404296875 19.6562671661377 31.89863395690918 25.32559776306152 23.95879364013672 25.32559776306152 C 20.99160766601563 25.32559776306152 6.519487380981445 30.25022125244141 1.876659393310547 30.25022125244141 C 1.313980102539063 30.25022125244141 0.8951377868652344 30.17778396606445 0.6591949462890625 30.01551818847656 C -2.971996307373047 27.52864837646484 9.582443237304688 16.72599792480469 9.582443237304688 12.66279792785645 C 9.582443237304688 5.669326782226563 16.01895332336426 -1.9073486328125e-06 23.95879364013672 -1.9073486328125e-06 Z" stroke="none" fill="#fff"/>
      </g>
    </g>
  </g>
</svg>
